<?xml version="1.0" encoding="UTF-8" standalone="no"?>
<!DOCTYPE svg PUBLIC "-//W3C//DTD SVG 1.1//EN" "http://www.w3.org/Graphics/SVG/1.1/DTD/svg11.dtd">
<svg width="100%" height="100%" viewBox="0 0 3508 2481" version="1.1" xmlns="http://www.w3.org/2000/svg" xmlns:xlink="http://www.w3.org/1999/xlink" xml:space="preserve" xmlns:serif="http://www.serif.com/" style="fill-rule:evenodd;clip-rule:evenodd;stroke-linecap:round;stroke-linejoin:round;stroke-miterlimit:1.5;">
    <g transform="matrix(1.002659,0,0,0.996115,358.533427,294.473412)">
        <rect x="856.680938" y="30.448034" width="1001.274788" height="1837.849023" style="fill:white;stroke:black;stroke-width:1px;"/>
    </g>
    <g transform="matrix(0.681948,0,0,0.953327,651.722039,334.269334)">
        <path d="M959.534587,467.820476L959.534587,1768.693702" style="fill:none;stroke:black;stroke-width:1.21px;"/>
    </g>
    <g transform="matrix(0.681948,0,0,0.953327,815.740882,334.269334)">
        <path d="M959.534587,467.820476L959.534587,1768.693702" style="fill:none;stroke:black;stroke-width:1.21px;"/>
    </g>
    <g transform="matrix(0.681948,0,0,0.953327,979.759725,334.269334)">
        <path d="M959.534587,467.820476L959.534587,1768.693702" style="fill:none;stroke:black;stroke-width:1.21px;"/>
    </g>
    <g transform="matrix(0.681948,0,0,0.953327,1143.778568,334.269334)">
        <path d="M959.534587,467.820476L959.534587,1768.693702" style="fill:none;stroke:black;stroke-width:1.21px;"/>
    </g>
    <g transform="matrix(0.991923,0,0,0.954545,354.289925,361.590423)">
        <path d="M1786.306241,872.051269L959.534587,872.051269" style="fill:none;stroke:black;stroke-width:1.03px;"/>
    </g>
    <g transform="matrix(0.991923,0,0,0.954545,360.967362,242.79362)">
        <path d="M959.534587,1429.210199L1786.306241,1429.210199" style="fill:none;stroke:black;stroke-width:1.03px;"/>
    </g>
    <g transform="matrix(0.681948,0,0,0.953327,1307.797411,334.269334)">
        <path d="M959.534587,467.820476L959.534587,1768.693702" style="fill:none;stroke:black;stroke-width:1.21px;"/>
    </g>
    <g transform="matrix(0.681948,0,0,0.953327,1471.816254,334.269334)">
        <path d="M959.534587,467.820476L959.534587,1768.693702" style="fill:none;stroke:black;stroke-width:1.21px;"/>
    </g>
    <g transform="matrix(0.852435,0,0,0.953327,488.133845,334.269334)">
        <path d="M959.534587,467.820476L1921.595173,467.820476" style="fill:none;stroke:black;stroke-width:1.11px;"/>
    </g>
    <g transform="matrix(0.852435,0,0,0.953327,488.133845,334.269334)">
        <path d="M959.534587,1768.693702L1921.595173,1768.693702" style="fill:none;stroke:black;stroke-width:1.11px;"/>
    </g>
    <g>
        <g transform="matrix(1,0,0,1,180.28137,500.397712)">
            <circle cx="1945.887657" cy="1313.251179" r="76.66388" style="fill:rgb(124,143,255);stroke:black;stroke-width:1px;"/>
        </g>
        <g transform="matrix(0.943679,0,0,0.996115,611.42669,1134.302161)">
            <g transform="matrix(125.487541,0,0,125.487541,1639.979744,726.90967)">
            </g>
            <text x="1570.189554px" y="726.90967px" style="font-family:'MicrosoftSansSerif', 'Microsoft Sans Serif', sans-serif;font-size:125.487541px;">3</text>
        </g>
    </g>
    <g transform="matrix(1,0,0,1,-356.205306,409.710638)">
        <g transform="matrix(1,0,0,1,-283.607539,90.967504)">
            <circle cx="1945.887657" cy="1313.251179" r="76.66388" style="fill:rgb(77,255,100);stroke:black;stroke-width:1px;"/>
        </g>
        <g transform="matrix(0.943679,0,0,0.996115,148.80987,724.871952)">
            <g transform="matrix(125.487541,0,0,125.487541,1639.979744,726.90967)">
            </g>
            <text x="1570.189554px" y="726.90967px" style="font-family:'MicrosoftSansSerif', 'Microsoft Sans Serif', sans-serif;font-size:125.487541px;">2</text>
        </g>
    </g>
    <g transform="matrix(1,0,0,1,-504.432349,441.556178)">
        <g transform="matrix(1,0,0,1,28.638347,-354.473425)">
            <circle cx="1945.887657" cy="1313.251179" r="76.66388" style="fill:rgb(255,108,108);stroke:black;stroke-width:1px;"/>
        </g>
        <g transform="matrix(0.996115,0,0,0.996115,380.071918,280.193963)">
            <g transform="matrix(125.487541,0,0,125.487541,1639.979744,726.90967)">
            </g>
            <text x="1570.189554px" y="726.90967px" style="font-family:'MicrosoftSansSerif', 'Microsoft Sans Serif', sans-serif;font-size:125.487541px;">1</text>
        </g>
    </g>
    <g transform="matrix(0.943679,0,0,0.996115,795.962989,338.30668)">
        <g transform="matrix(250.975082,0,0,250.975082,1078.367073,204.723434)">
        </g>
        <text x="883.150616px" y="204.723434px" style="font-family:'MicrosoftSansSerif', 'Microsoft Sans Serif', sans-serif;font-size:250.975082px;">G</text>
    </g>
</svg>
