<?xml version="1.0" encoding="UTF-8" standalone="no"?>
<!DOCTYPE svg PUBLIC "-//W3C//DTD SVG 1.1//EN" "http://www.w3.org/Graphics/SVG/1.1/DTD/svg11.dtd">
<svg width="100%" height="100%" viewBox="0 0 3508 2481" version="1.1" xmlns="http://www.w3.org/2000/svg" xmlns:xlink="http://www.w3.org/1999/xlink" xml:space="preserve" xmlns:serif="http://www.serif.com/" style="fill-rule:evenodd;clip-rule:evenodd;stroke-linecap:round;stroke-linejoin:round;stroke-miterlimit:1.5;">
    <rect x="856.681" y="30.448" width="1001.275" height="1837.849" style="fill:white;stroke:black;stroke-width:1px;"/>
    <g transform="matrix(0.687501,0,0,0.998723,299.85389,0.597196)">
        <path d="M959.535,467.82L959.535,1768.694" style="fill:none;stroke:black;stroke-width:1.17px;"/>
    </g>
    <g transform="matrix(0.687501,0,0,0.998723,465.208221,0.597196)">
        <path d="M959.535,467.82L959.535,1768.694" style="fill:none;stroke:black;stroke-width:1.17px;"/>
    </g>
    <g transform="matrix(0.687501,0,0,0.998723,630.562551,0.597196)">
        <path d="M959.535,467.82L959.535,1768.694" style="fill:none;stroke:black;stroke-width:1.17px;"/>
    </g>
    <g transform="matrix(0.687501,0,0,0.998723,795.916882,0.597196)">
        <path d="M959.535,467.82L959.535,1768.694" style="fill:none;stroke:black;stroke-width:1.17px;"/>
    </g>
    <g transform="matrix(1,0,0,1,0,14.640059)">
        <path d="M1786.306,872.051L959.535,872.051" style="fill:none;stroke:black;stroke-width:1px;"/>
    </g>
    <g transform="matrix(1,0,0,1,6.731807,-54.377362)">
        <path d="M959.535,1429.21L1786.306,1429.21" style="fill:none;stroke:black;stroke-width:1px;"/>
    </g>
    <g transform="matrix(0.687501,0,0,0.998723,961.271213,0.597196)">
        <path d="M959.535,467.82L959.535,1768.694" style="fill:none;stroke:black;stroke-width:1.17px;"/>
    </g>
    <g transform="matrix(0.687501,0,0,0.998723,1126.625544,0.597196)">
        <path d="M959.535,467.82L959.535,1768.694" style="fill:none;stroke:black;stroke-width:1.17px;"/>
    </g>
    <g transform="matrix(0.859376,0,0,0.998723,134.933716,0.597196)">
        <path d="M959.535,467.82L1921.595,467.82" style="fill:none;stroke:black;stroke-width:1.07px;"/>
    </g>
    <g transform="matrix(0.859376,0,0,0.998723,134.933716,0.597196)">
        <path d="M959.535,1768.694L1921.595,1768.694" style="fill:none;stroke:black;stroke-width:1.07px;"/>
    </g>
    <g transform="matrix(1,0,0,1,-496.055305,-139.440368)">
        <circle cx="2117.007" cy="812.86" r="89.409" style="fill:rgb(235,235,235);stroke:black;stroke-width:1px;"/>
    </g>
    <g transform="matrix(1,0,0,1,-826.763966,304.566592)">
        <circle cx="2117.007" cy="812.86" r="89.409" style="fill:rgb(235,235,235);stroke:black;stroke-width:1px;"/>
    </g>
    <g transform="matrix(1,0,0,1,-992.118297,762.172634)">
        <circle cx="2117.007" cy="812.86" r="89.409" style="fill:rgb(235,235,235);stroke:black;stroke-width:1px;"/>
    </g>
    <g transform="matrix(1,0,0,1,35.554429,11.867593)">
        <g transform="matrix(178.104322,0,0,178.104322,967.863335,429.803208)">
        </g>
        <text x="878.811px" y="429.803px" style="font-family:'ArialMT', 'Arial', sans-serif;font-size:178.104px;">x</text>
    </g>
    <g transform="matrix(1,0,0,1,532.260325,11.867593)">
        <g transform="matrix(178.104322,0,0,178.104322,967.863335,429.803208)">
        </g>
        <text x="878.811px" y="429.803px" style="font-family:'ArialMT', 'Arial', sans-serif;font-size:178.104px;">x</text>
    </g>
    <g transform="matrix(1,0,0,1,862.968987,11.867593)">
        <g transform="matrix(178.104322,0,0,178.104322,967.863335,429.803208)">
        </g>
        <text x="878.811px" y="429.803px" style="font-family:'ArialMT', 'Arial', sans-serif;font-size:178.104px;">x</text>
    </g>
    <g transform="matrix(1,0,0,1,-313.599394,435.846106)">
        <g transform="matrix(126.132874,0,0,126.132874,1640.338648,726.90967)">
        </g>
        <text x="1570.19px" y="726.91px" style="font-family:'ArialMT', 'Arial', sans-serif;font-size:126.133px;">2</text>
    </g>
    <g transform="matrix(1,0,0,1,20.399315,-8.160854)">
        <g transform="matrix(126.132874,0,0,126.132874,1640.338648,726.90967)">
        </g>
        <text x="1570.19px" y="726.91px" style="font-family:'ArialMT', 'Arial', sans-serif;font-size:126.133px;">1</text>
    </g>
    <g transform="matrix(1,0,0,1,-480.159624,892.6515)">
        <g transform="matrix(126.132874,0,0,126.132874,1640.338648,726.90967)">
        </g>
        <text x="1570.19px" y="726.91px" style="font-family:'ArialMT', 'Arial', sans-serif;font-size:126.133px;">3</text>
    </g>
    <g transform="matrix(1,0,0,1,168.717178,39.737278)">
        <g transform="matrix(183.943693,0,0,183.943693,1527.043357,204.723434)">
        </g>
        <text x="883.151px" y="204.723px" style="font-family:'ArialMT', 'Arial', sans-serif;font-size:183.944px;">C major</text>
    </g>
</svg>
