<?xml version="1.0" encoding="UTF-8" standalone="no"?>
<!DOCTYPE svg PUBLIC "-//W3C//DTD SVG 1.1//EN" "http://www.w3.org/Graphics/SVG/1.1/DTD/svg11.dtd">
<svg width="100%" height="100%" viewBox="0 0 1003 1839" version="1.1" xmlns="http://www.w3.org/2000/svg" xmlns:xlink="http://www.w3.org/1999/xlink" xml:space="preserve" xmlns:serif="http://www.serif.com/" style="fill-rule:evenodd;clip-rule:evenodd;stroke-linecap:round;stroke-linejoin:round;stroke-miterlimit:1.5;">
    <g transform="matrix(1,0,0,1,-1252.799614,-320.732969)">
        <g transform="matrix(1,0,0,1,396.618676,290.784935)">
            <rect x="856.680938" y="30.448034" width="1001.274788" height="1837.849023" style="fill:white;stroke:black;stroke-width:1px;"/>
        </g>
        <g transform="matrix(0.687501,0,0,0.998723,696.472566,291.382131)">
            <path d="M959.534587,467.820476L959.534587,1768.693702" style="fill:none;stroke:black;stroke-width:1.17px;"/>
        </g>
        <g transform="matrix(0.687501,0,0,0.998723,861.826897,291.382131)">
            <path d="M959.534587,467.820476L959.534587,1768.693702" style="fill:none;stroke:black;stroke-width:1.17px;"/>
        </g>
        <g transform="matrix(0.687501,0,0,0.998723,1027.181228,291.382131)">
            <path d="M959.534587,467.820476L959.534587,1768.693702" style="fill:none;stroke:black;stroke-width:1.17px;"/>
        </g>
        <g transform="matrix(0.687501,0,0,0.998723,1192.535558,291.382131)">
            <path d="M959.534587,467.820476L959.534587,1768.693702" style="fill:none;stroke:black;stroke-width:1.17px;"/>
        </g>
        <g transform="matrix(1,0,0,1,396.618676,305.424994)">
            <path d="M1786.306241,872.051269L959.534587,872.051269" style="fill:none;stroke:black;stroke-width:1px;"/>
        </g>
        <g transform="matrix(1,0,0,1,403.350484,236.407573)">
            <path d="M959.534587,1429.210199L1786.306241,1429.210199" style="fill:none;stroke:black;stroke-width:1px;"/>
        </g>
        <g transform="matrix(0.687501,0,0,0.998723,1357.889889,291.382131)">
            <path d="M959.534587,467.820476L959.534587,1768.693702" style="fill:none;stroke:black;stroke-width:1.17px;"/>
        </g>
        <g transform="matrix(0.687501,0,0,0.998723,1523.24422,291.382131)">
            <path d="M959.534587,467.820476L959.534587,1768.693702" style="fill:none;stroke:black;stroke-width:1.17px;"/>
        </g>
        <g transform="matrix(0.859376,0,0,0.998723,531.552392,291.382131)">
            <path d="M959.534587,467.820476L1921.595173,467.820476" style="fill:none;stroke:black;stroke-width:1.07px;"/>
        </g>
        <g transform="matrix(0.859376,0,0,0.998723,531.552392,291.382131)">
            <path d="M959.534587,1768.693702L1921.595173,1768.693702" style="fill:none;stroke:black;stroke-width:1.07px;"/>
        </g>
        <g transform="matrix(1,0,0,1,-99.436629,151.344567)">
            <circle cx="2117.007215" cy="812.860183" r="89.408973" style="fill:rgb(235,235,235);stroke:black;stroke-width:1px;"/>
        </g>
        <g transform="matrix(1,0,0,1,-430.14529,595.351527)">
            <circle cx="2117.007215" cy="812.860183" r="89.408973" style="fill:rgb(235,235,235);stroke:black;stroke-width:1px;"/>
        </g>
        <g transform="matrix(1,0,0,1,-595.499621,1052.957569)">
            <circle cx="2117.007215" cy="812.860183" r="89.408973" style="fill:rgb(235,235,235);stroke:black;stroke-width:1px;"/>
        </g>
        <g transform="matrix(1,0,0,1,432.173105,302.652527)">
            <g transform="matrix(178.104322,0,0,178.104322,967.863335,429.803208)">
            </g>
            <text x="878.811174px" y="429.803208px" style="font-family:'ArialMT', 'Arial', sans-serif;font-size:178.104322px;">x</text>
        </g>
        <g transform="matrix(1,0,0,1,928.879001,302.652527)">
            <g transform="matrix(178.104322,0,0,178.104322,967.863335,429.803208)">
            </g>
            <text x="878.811174px" y="429.803208px" style="font-family:'ArialMT', 'Arial', sans-serif;font-size:178.104322px;">x</text>
        </g>
        <g transform="matrix(1,0,0,1,1259.587663,302.652527)">
            <g transform="matrix(178.104322,0,0,178.104322,967.863335,429.803208)">
            </g>
            <text x="878.811174px" y="429.803208px" style="font-family:'ArialMT', 'Arial', sans-serif;font-size:178.104322px;">x</text>
        </g>
        <g transform="matrix(1,0,0,1,83.019282,726.631041)">
            <g transform="matrix(126.132874,0,0,126.132874,1640.338648,726.90967)">
            </g>
            <text x="1570.189554px" y="726.90967px" style="font-family:'ArialMT', 'Arial', sans-serif;font-size:126.132874px;">2</text>
        </g>
        <g transform="matrix(1,0,0,1,417.017992,282.624081)">
            <g transform="matrix(126.132874,0,0,126.132874,1640.338648,726.90967)">
            </g>
            <text x="1570.189554px" y="726.90967px" style="font-family:'ArialMT', 'Arial', sans-serif;font-size:126.132874px;">1</text>
        </g>
        <g transform="matrix(1,0,0,1,-83.540948,1183.436435)">
            <g transform="matrix(126.132874,0,0,126.132874,1640.338648,726.90967)">
            </g>
            <text x="1570.189554px" y="726.90967px" style="font-family:'ArialMT', 'Arial', sans-serif;font-size:126.132874px;">3</text>
        </g>
        <g transform="matrix(1,0,0,1,565.335854,330.522213)">
            <g transform="matrix(183.943693,0,0,183.943693,1527.043357,204.723434)">
            </g>
            <text x="883.150616px" y="204.723434px" style="font-family:'ArialMT', 'Arial', sans-serif;font-size:183.943693px;">C major</text>
        </g>
    </g>
</svg>
