<?xml version="1.0" encoding="UTF-8" standalone="no"?>
<!DOCTYPE svg PUBLIC "-//W3C//DTD SVG 1.1//EN" "http://www.w3.org/Graphics/SVG/1.1/DTD/svg11.dtd">
<svg width="100%" height="100%" viewBox="0 0 1183 1832" version="1.1" xmlns="http://www.w3.org/2000/svg" xmlns:xlink="http://www.w3.org/1999/xlink" xml:space="preserve" xmlns:serif="http://www.serif.com/" style="fill-rule:evenodd;clip-rule:evenodd;stroke-linecap:round;stroke-linejoin:round;stroke-miterlimit:1.5;">
    <g transform="matrix(1,0,0,1,-1109.429823,-324.30315)">
        <g transform="matrix(1.179599,0,0,0.996115,99.390167,294.473412)">
            <rect x="856.681" y="30.448" width="1001.275" height="1837.849" style="fill:white;stroke:black;stroke-width:0.92px;"/>
        </g>
        <g transform="matrix(1,0,0,1,5,0)">
            <g transform="matrix(0.681948,0,0,0.953327,630.722039,333.269334)">
                <path d="M959.535,467.82L959.535,1768.694" style="fill:none;stroke:black;stroke-width:5.03px;"/>
            </g>
            <g transform="matrix(0.681948,0,0,0.953327,794.740882,333.269334)">
                <path d="M959.535,467.82L959.535,1768.694" style="fill:none;stroke:black;stroke-width:5.03px;"/>
            </g>
            <g transform="matrix(0.681948,0,0,0.953327,958.759725,333.269334)">
                <path d="M959.535,467.82L959.535,1768.694" style="fill:none;stroke:black;stroke-width:5.03px;"/>
            </g>
            <g transform="matrix(0.681948,0,0,0.953327,1122.778568,333.269334)">
                <path d="M959.535,467.82L959.535,1768.694" style="fill:none;stroke:black;stroke-width:5.03px;"/>
            </g>
            <g transform="matrix(0.991923,0,0,0.954545,333.289925,360.590423)">
                <path d="M1786.306,872.051L959.535,872.051" style="fill:none;stroke:black;stroke-width:4.28px;"/>
            </g>
            <g transform="matrix(0.991923,0,0,0.954545,333.289925,241.79362)">
                <path d="M959.535,1429.21L1786.306,1429.21" style="fill:none;stroke:black;stroke-width:4.28px;"/>
            </g>
            <g transform="matrix(0.681948,0,0,0.953327,1286.797411,333.269334)">
                <path d="M959.535,467.82L959.535,1768.694" style="fill:none;stroke:black;stroke-width:5.03px;"/>
            </g>
            <g transform="matrix(0.681948,0,0,0.953327,1450.816254,333.269334)">
                <path d="M959.535,467.82L959.535,1768.694" style="fill:none;stroke:black;stroke-width:5.03px;"/>
            </g>
            <g transform="matrix(0.852435,0,0,0.953327,467.133845,333.269334)">
                <path d="M959.535,467.82L1921.595,467.82" style="fill:none;stroke:black;stroke-width:4.61px;"/>
            </g>
            <g transform="matrix(0.852435,0,0,0.953327,467.133845,333.269334)">
                <path d="M959.535,1768.694L1921.595,1768.694" style="fill:none;stroke:black;stroke-width:4.61px;"/>
            </g>
        </g>
        <g transform="matrix(1,0,0,1,311.995803,-414.595381)">
            <g transform="matrix(1,0,0,1,-311.775159,500.678134)">
                <circle cx="1945.888" cy="1313.251" r="76.664" style="fill:rgb(255,250,54);stroke:black;stroke-width:1px;"/>
            </g>
            <g transform="matrix(0.996115,0,0,0.996115,37.217006,1135.162416)">
                <g transform="matrix(125.487541,0,0,125.487541,1639.979744,726.90967)">
                </g>
                <text x="1570.19px" y="726.91px" style="font-family:'MicrosoftSansSerif', 'Microsoft Sans Serif', sans-serif;font-size:125.488px;">4</text>
            </g>
        </g>
        <g transform="matrix(1,0,0,1,-343.900134,-0.727051)">
            <g transform="matrix(1,0,0,1,180.28137,500.397712)">
                <circle cx="1945.888" cy="1313.251" r="76.664" style="fill:rgb(124,143,255);stroke:black;stroke-width:1px;"/>
            </g>
            <g transform="matrix(0.943679,0,0,0.996115,611.42669,1134.302161)">
                <g transform="matrix(125.487541,0,0,125.487541,1639.979744,726.90967)">
                </g>
                <text x="1570.19px" y="726.91px" style="font-family:'MicrosoftSansSerif', 'Microsoft Sans Serif', sans-serif;font-size:125.488px;">3</text>
            </g>
        </g>
        <g transform="matrix(1,0,0,1,-16.277984,-1)">
            <g transform="matrix(1,0,0,1,-311.775159,87.082754)">
                <circle cx="1945.888" cy="1313.251" r="76.664" style="fill:rgb(77,255,100);stroke:black;stroke-width:1px;"/>
            </g>
            <g transform="matrix(0.943679,0,0,0.996115,120.64225,720.987202)">
                <g transform="matrix(125.487541,0,0,125.487541,1639.979744,726.90967)">
                </g>
                <text x="1570.19px" y="726.91px" style="font-family:'MicrosoftSansSerif', 'Microsoft Sans Serif', sans-serif;font-size:125.488px;">2</text>
            </g>
        </g>
        <g transform="matrix(1,0,0,1,-180.018843,-0.584555)">
            <g transform="matrix(1,0,0,1,-311.775159,-326.134233)">
                <circle cx="1945.888" cy="1313.251" r="76.664" style="fill:rgb(255,108,108);stroke:black;stroke-width:1px;"/>
            </g>
            <g transform="matrix(1,0,0,1,-75.675128,62.235147)">
                <g transform="matrix(0.94736,0,0,1,88.489696,0)">
                    <g transform="matrix(125,0,0,125,1750.540105,970.383507)">
                    </g>
                    <text x="1681.021px" y="970.384px" style="font-family:'MicrosoftSansSerif', 'Microsoft Sans Serif', sans-serif;font-size:125px;">1</text>
                </g>
            </g>
        </g>
        <g transform="matrix(0.943679,0,0,0.996115,483.766784,365.277822)">
            <g transform="matrix(292.804262,0,0,292.804262,1714.81194,204.723434)">
            </g>
            <text x="883.151px" y="204.723px" style="font-family:'MicrosoftSansSerif', 'Microsoft Sans Serif', sans-serif;font-size:292.804px;">A#dim</text>
        </g>
        <g transform="matrix(0.943679,0,0,0.996115,408.102465,304.208126)">
            <g transform="matrix(167.316721,0,0,167.316721,990.410119,429.803208)">
            </g>
            <text x="878.811px" y="429.803px" style="font-family:'MicrosoftSansSerif', 'Microsoft Sans Serif', sans-serif;font-size:167.317px;fill:rgb(255,64,63);">X</text>
        </g>
        <g transform="matrix(0.943679,0,0,0.996115,1228.196681,304.208126)">
            <g transform="matrix(167.316721,0,0,167.316721,990.410119,429.803208)">
            </g>
            <text x="878.811px" y="429.803px" style="font-family:'MicrosoftSansSerif', 'Microsoft Sans Serif', sans-serif;font-size:167.317px;fill:rgb(255,64,63);">X</text>
        </g>
    </g>
</svg>
