<?xml version="1.0" encoding="UTF-8" standalone="no"?>
<!DOCTYPE svg PUBLIC "-//W3C//DTD SVG 1.1//EN" "http://www.w3.org/Graphics/SVG/1.1/DTD/svg11.dtd">
<svg width="100%" height="100%" viewBox="0 0 1183 1832" version="1.1" xmlns="http://www.w3.org/2000/svg" xmlns:xlink="http://www.w3.org/1999/xlink" xml:space="preserve" xmlns:serif="http://www.serif.com/" style="fill-rule:evenodd;clip-rule:evenodd;stroke-linecap:round;stroke-linejoin:round;stroke-miterlimit:1.5;">
    <g transform="matrix(1,0,0,1,-1125.070738,-324.30315)">
        <g transform="matrix(1.179599,0,0,0.996115,115.031083,294.473412)">
            <rect x="856.681" y="30.448" width="1001.275" height="1837.849" style="fill:white;stroke:black;stroke-width:0.92px;"/>
        </g>
        <g>
            <g transform="matrix(0.681948,0,0,0.953327,651.722039,334.269334)">
                <path d="M959.535,467.82L959.535,1768.694" style="fill:none;stroke:black;stroke-width:5.03px;"/>
            </g>
            <g transform="matrix(0.681948,0,0,0.953327,815.740882,334.269334)">
                <path d="M959.535,467.82L959.535,1768.694" style="fill:none;stroke:black;stroke-width:5.03px;"/>
            </g>
            <g transform="matrix(0.681948,0,0,0.953327,979.759725,334.269334)">
                <path d="M959.535,467.82L959.535,1768.694" style="fill:none;stroke:black;stroke-width:5.03px;"/>
            </g>
            <g transform="matrix(0.681948,0,0,0.953327,1143.778568,334.269334)">
                <path d="M959.535,467.82L959.535,1768.694" style="fill:none;stroke:black;stroke-width:5.03px;"/>
            </g>
            <g transform="matrix(0.991923,0,0,0.954545,354.289925,361.590423)">
                <path d="M1786.306,872.051L959.535,872.051" style="fill:none;stroke:black;stroke-width:4.28px;"/>
            </g>
            <g transform="matrix(0.991923,0,0,0.954545,354.289925,242.79362)">
                <path d="M959.535,1429.21L1786.306,1429.21" style="fill:none;stroke:black;stroke-width:4.28px;"/>
            </g>
            <g transform="matrix(0.681948,0,0,0.953327,1307.797411,334.269334)">
                <path d="M959.535,467.82L959.535,1768.694" style="fill:none;stroke:black;stroke-width:5.03px;"/>
            </g>
            <g transform="matrix(0.681948,0,0,0.953327,1471.816254,334.269334)">
                <path d="M959.535,467.82L959.535,1768.694" style="fill:none;stroke:black;stroke-width:5.03px;"/>
            </g>
            <g transform="matrix(0.852435,0,0,0.953327,488.133845,334.269334)">
                <path d="M959.535,467.82L1921.595,467.82" style="fill:none;stroke:black;stroke-width:4.61px;"/>
            </g>
            <g transform="matrix(0.852435,0,0,0.953327,488.133845,334.269334)">
                <path d="M959.535,1768.694L1921.595,1768.694" style="fill:none;stroke:black;stroke-width:4.61px;"/>
            </g>
        </g>
        <g transform="matrix(1,0,0,1,328.037686,0.023368)">
            <g transform="matrix(1,0,0,1,-311.775159,500.678134)">
                <circle cx="1945.888" cy="1313.251" r="76.664" style="fill:rgb(255,250,54);stroke:black;stroke-width:1px;"/>
            </g>
            <g transform="matrix(0.996115,0,0,0.996115,37.217006,1135.162416)">
                <g transform="matrix(125.487541,0,0,125.487541,1639.979744,726.90967)">
                </g>
                <text x="1570.19px" y="726.91px" style="font-family:'MicrosoftSansSerif', 'Microsoft Sans Serif', sans-serif;font-size:125.488px;">4</text>
            </g>
        </g>
        <g transform="matrix(1,0,0,1,-492.056529,0.30379)">
            <g transform="matrix(1,0,0,1,180.28137,500.397712)">
                <circle cx="1945.888" cy="1313.251" r="76.664" style="fill:rgb(124,143,255);stroke:black;stroke-width:1px;"/>
            </g>
            <g transform="matrix(0.943679,0,0,0.996115,611.42669,1134.302161)">
                <g transform="matrix(125.487541,0,0,125.487541,1639.979744,726.90967)">
                </g>
                <text x="1570.19px" y="726.91px" style="font-family:'MicrosoftSansSerif', 'Microsoft Sans Serif', sans-serif;font-size:125.488px;">3</text>
            </g>
        </g>
        <g transform="matrix(0.943679,0,0,0.996115,632.03264,364.932516)">
            <g transform="matrix(292.804262,0,0,292.804262,1404.136324,204.723434)">
            </g>
            <text x="883.151px" y="204.723px" style="font-family:'MicrosoftSansSerif', 'Microsoft Sans Serif', sans-serif;font-size:292.804px;">Eb7</text>
        </g>
        <g transform="matrix(0.792358,0,0,1.049663,441.482193,-15.263196)">
            <path d="M2126.169,915.103L2126.169,982.616C2126.169,1001.247 2106.131,1016.372 2081.451,1016.372L1342.884,1016.372C1318.203,1016.372 1298.165,1001.247 1298.165,982.616L1298.165,915.103C1298.165,896.472 1318.203,881.346 1342.884,881.346L2081.451,881.346C2106.131,881.346 2126.169,896.472 2126.169,915.103Z" style="fill:rgb(255,108,108);stroke:black;stroke-width:1.08px;"/>
        </g>
        <g transform="matrix(1,0,0,1,88.343715,55.837761)">
            <g transform="matrix(0.94736,0,0,1,88.489696,0)">
                <g transform="matrix(125,0,0,125,1750.540105,970.383507)">
                </g>
                <text x="1681.021px" y="970.384px" style="font-family:'MicrosoftSansSerif', 'Microsoft Sans Serif', sans-serif;font-size:125px;">1</text>
            </g>
        </g>
        <g transform="matrix(0.943679,0,0,0.996115,424.102465,304.784543)">
            <g transform="matrix(167.316721,0,0,167.316721,990.410119,429.803208)">
            </g>
            <text x="878.811px" y="429.803px" style="font-family:'MicrosoftSansSerif', 'Microsoft Sans Serif', sans-serif;font-size:167.317px;fill:rgb(255,64,63);">X</text>
        </g>
        <g transform="matrix(1,0,0,1,4.649391,157.244427)">
            <g transform="matrix(0.94736,0,0,1,61.596589,0)">
                <g transform="matrix(166.666667,0,0,166.666667,1262.830147,889.956909)">
                </g>
                <text x="1170.138px" y="889.957px" style="font-family:'MicrosoftSansSerif', 'Microsoft Sans Serif', sans-serif;font-size:166.667px;">4</text>
            </g>
        </g>
    </g>
</svg>
