<?xml version="1.0" encoding="UTF-8" standalone="no"?>
<!DOCTYPE svg PUBLIC "-//W3C//DTD SVG 1.1//EN" "http://www.w3.org/Graphics/SVG/1.1/DTD/svg11.dtd">
<svg width="100%" height="100%" viewBox="0 0 1183 1832" version="1.1" xmlns="http://www.w3.org/2000/svg" xmlns:xlink="http://www.w3.org/1999/xlink" xml:space="preserve" xmlns:serif="http://www.serif.com/" style="fill-rule:evenodd;clip-rule:evenodd;stroke-linecap:round;stroke-linejoin:round;stroke-miterlimit:1.5;">
    <g transform="matrix(1,0,0,1,-1109.429823,-324.30315)">
        <g transform="matrix(1.179599,0,0,0.996115,99.390167,294.473412)">
            <rect x="856.680938" y="30.448034" width="1001.274788" height="1837.849023" style="fill:white;stroke:black;stroke-width:0.92px;"/>
        </g>
        <g transform="matrix(1,0,0,1,-5.0066,157.828982)">
            <g transform="matrix(0.94736,0,0,1,61.596589,0)">
                <g transform="matrix(166.666667,0,0,166.666667,1262.830147,889.956909)">
                </g>
                <text x="1170.13809px" y="889.956909px" style="font-family:'MicrosoftSansSerif', 'Microsoft Sans Serif', sans-serif;font-size:166.666667px;">2</text>
            </g>
        </g>
        <g transform="matrix(0.681948,0,0,0.953327,651.722039,334.269334)">
            <path d="M959.534587,467.820476L959.534587,1768.693702" style="fill:none;stroke:black;stroke-width:1.21px;"/>
        </g>
        <g transform="matrix(0.681948,0,0,0.953327,815.740882,334.269334)">
            <path d="M959.534587,467.820476L959.534587,1768.693702" style="fill:none;stroke:black;stroke-width:1.21px;"/>
        </g>
        <g transform="matrix(0.681948,0,0,0.953327,979.759725,334.269334)">
            <path d="M959.534587,467.820476L959.534587,1768.693702" style="fill:none;stroke:black;stroke-width:1.21px;"/>
        </g>
        <g transform="matrix(0.681948,0,0,0.953327,1143.778568,334.269334)">
            <path d="M959.534587,467.820476L959.534587,1768.693702" style="fill:none;stroke:black;stroke-width:1.21px;"/>
        </g>
        <g transform="matrix(0.991923,0,0,0.954545,354.289925,361.590423)">
            <path d="M1786.306241,872.051269L959.534587,872.051269" style="fill:none;stroke:black;stroke-width:1.03px;"/>
        </g>
        <g transform="matrix(0.991923,0,0,0.954545,360.967362,242.79362)">
            <path d="M959.534587,1429.210199L1786.306241,1429.210199" style="fill:none;stroke:black;stroke-width:1.03px;"/>
        </g>
        <g transform="matrix(0.681948,0,0,0.953327,1307.797411,334.269334)">
            <path d="M959.534587,467.820476L959.534587,1768.693702" style="fill:none;stroke:black;stroke-width:1.21px;"/>
        </g>
        <g transform="matrix(0.681948,0,0,0.953327,1471.816254,334.269334)">
            <path d="M959.534587,467.820476L959.534587,1768.693702" style="fill:none;stroke:black;stroke-width:1.21px;"/>
        </g>
        <g transform="matrix(0.852435,0,0,0.953327,488.133845,334.269334)">
            <path d="M959.534587,467.820476L1921.595173,467.820476" style="fill:none;stroke:black;stroke-width:1.11px;"/>
        </g>
        <g transform="matrix(0.852435,0,0,0.953327,488.133845,334.269334)">
            <path d="M959.534587,1768.693702L1921.595173,1768.693702" style="fill:none;stroke:black;stroke-width:1.11px;"/>
        </g>
        <g transform="matrix(1,0,0,1,328.037686,-413.595381)">
            <g transform="matrix(1,0,0,1,-311.775159,500.678134)">
                <circle cx="1945.887657" cy="1313.251179" r="76.66388" style="fill:rgb(255,250,54);stroke:black;stroke-width:1px;"/>
            </g>
            <g transform="matrix(0.996115,0,0,0.996115,37.217006,1135.162416)">
                <g transform="matrix(125.487541,0,0,125.487541,1639.979744,726.90967)">
                </g>
                <text x="1570.189554px" y="726.90967px" style="font-family:'MicrosoftSansSerif', 'Microsoft Sans Serif', sans-serif;font-size:125.487541px;">4</text>
            </g>
        </g>
        <g transform="matrix(1,0,0,1,-328.037686,-0.00361)">
            <g transform="matrix(1,0,0,1,180.28137,500.397712)">
                <circle cx="1945.887657" cy="1313.251179" r="76.66388" style="fill:rgb(124,143,255);stroke:black;stroke-width:1px;"/>
            </g>
            <g transform="matrix(0.943679,0,0,0.996115,611.42669,1134.302161)">
                <g transform="matrix(125.487541,0,0,125.487541,1639.979744,726.90967)">
                </g>
                <text x="1570.189554px" y="726.90967px" style="font-family:'MicrosoftSansSerif', 'Microsoft Sans Serif', sans-serif;font-size:125.487541px;">3</text>
            </g>
        </g>
        <g>
            <g transform="matrix(1,0,0,1,-311.775159,87.082754)">
                <circle cx="1945.887657" cy="1313.251179" r="76.66388" style="fill:rgb(77,255,100);stroke:black;stroke-width:1px;"/>
            </g>
            <g transform="matrix(0.943679,0,0,0.996115,120.64225,720.987202)">
                <g transform="matrix(125.487541,0,0,125.487541,1639.979744,726.90967)">
                </g>
                <text x="1570.189554px" y="726.90967px" style="font-family:'MicrosoftSansSerif', 'Microsoft Sans Serif', sans-serif;font-size:125.487541px;">2</text>
            </g>
        </g>
        <g transform="matrix(1,0,0,1,-164.018843,-0.584555)">
            <g transform="matrix(1,0,0,1,-311.775159,-326.134233)">
                <circle cx="1945.887657" cy="1313.251179" r="76.66388" style="fill:rgb(255,108,108);stroke:black;stroke-width:1px;"/>
            </g>
            <g transform="matrix(1,0,0,1,-75.675128,62.235147)">
                <g transform="matrix(0.94736,0,0,1,88.489696,0)">
                    <g transform="matrix(125,0,0,125,1750.540105,970.383507)">
                    </g>
                    <text x="1681.021062px" y="970.383507px" style="font-family:'MicrosoftSansSerif', 'Microsoft Sans Serif', sans-serif;font-size:125px;">1</text>
                </g>
            </g>
        </g>
        <g transform="matrix(0.943679,0,0,0.996115,594.080855,335.419091)">
            <g transform="matrix(250.975082,0,0,250.975082,1456.422799,204.723434)">
            </g>
            <text x="883.150616px" y="204.723434px" style="font-family:'MicrosoftSansSerif', 'Microsoft Sans Serif', sans-serif;font-size:250.975082px;">Bdim</text>
        </g>
    </g>
</svg>
