<?xml version="1.0" encoding="UTF-8" standalone="no"?>
<!DOCTYPE svg PUBLIC "-//W3C//DTD SVG 1.1//EN" "http://www.w3.org/Graphics/SVG/1.1/DTD/svg11.dtd">
<svg width="100%" height="100%" viewBox="0 0 1577 1426" version="1.1" xmlns="http://www.w3.org/2000/svg" xmlns:xlink="http://www.w3.org/1999/xlink" xml:space="preserve" xmlns:serif="http://www.serif.com/" style="fill-rule:evenodd;clip-rule:evenodd;stroke-linecap:round;stroke-linejoin:round;stroke-miterlimit:1.5;">
    <g transform="matrix(1,0,0,1,-473.824127,-1075.487365)">
        <g transform="matrix(1.050841,0,0,0.968213,-46.615237,100.88984)">
            <rect x="1092.43" y="1010.897" width="899.168" height="1463.854" style="fill:white;stroke:black;stroke-width:8.25px;"/>
        </g>
        <g transform="matrix(1,0,0,1,0,236.072205)">
            <path d="M1278.52,1434.007L1869.072,1434.007" style="fill:none;stroke:black;stroke-width:8.33px;"/>
        </g>
        <g transform="matrix(1,0,0,1,0,472.292678)">
            <path d="M1278.52,1434.007L1869.072,1434.007" style="fill:none;stroke:black;stroke-width:8.33px;"/>
        </g>
        <g transform="matrix(1,0,0,1,0,708.51315)">
            <path d="M1278.52,1434.007L1869.072,1434.007" style="fill:none;stroke:black;stroke-width:8.33px;"/>
        </g>
        <rect x="1513.791" y="1434.007" width="118.492" height="944.882" style="fill:white;"/>
        <g>
            <g transform="matrix(1.057031,0,0,1.131113,-124.790741,-367.841786)">
                <rect x="1327.597" y="1592.987" width="558.689" height="835.356" style="fill:rgb(230,207,168);fill-opacity:0.43;stroke:black;stroke-width:7.61px;"/>
            </g>
            <g transform="matrix(1,0,0,1,117.542522,0)">
                <path d="M1278.52,1434.007L1278.52,2378.888" style="fill:none;stroke:black;stroke-width:8.33px;"/>
            </g>
            <g transform="matrix(1,0,0,1,235.652758,0)">
                <path d="M1278.52,1434.007L1278.52,2378.888" style="fill:none;stroke:black;stroke-width:8.33px;"/>
            </g>
            <g transform="matrix(1,0,0,1,353.762994,0)">
                <path d="M1278.52,1434.007L1278.52,2378.888" style="fill:none;stroke:black;stroke-width:8.33px;"/>
            </g>
            <g transform="matrix(1,0,0,1,471.873231,0)">
                <path d="M1278.52,1434.007L1278.52,2378.888" style="fill:none;stroke:black;stroke-width:8.33px;"/>
            </g>
        </g>
        <g>
            <g transform="matrix(2.700076,0,0,2.700076,-2660.056588,-2646.272427)">
                <text x="1551.396px" y="1561.848px" style="font-family:'Arial-BoldMT', 'Arial', sans-serif;font-weight:700;font-size:49.381px;fill:rgb(211,100,4);">S</text>
                <text x="1550.034px" y="1618.632px" style="font-family:'Arial-BoldMT', 'Arial', sans-serif;font-weight:700;font-size:49.381px;fill:rgb(211,100,4);">C</text>
                <text x="1550.034px" y="1675.415px" style="font-family:'Arial-BoldMT', 'Arial', sans-serif;font-weight:700;font-size:49.381px;fill:rgb(211,100,4);">A</text>
                <text x="1552.783px" y="1732.199px" style="font-family:'Arial-BoldMT', 'Arial', sans-serif;font-weight:700;font-size:49.381px;fill:rgb(211,100,4);">L</text>
                <text x="1551.396px" y="1788.983px" style="font-family:'Arial-BoldMT', 'Arial', sans-serif;font-weight:700;font-size:49.381px;fill:rgb(211,100,4);">E</text>
                <g transform="matrix(49.381327,0,0,49.381327,1584.333355,1845.766418)">
                </g>
                <text x="1551.396px" y="1845.766px" style="font-family:'Arial-BoldMT', 'Arial', sans-serif;font-weight:700;font-size:49.381px;fill:rgb(211,100,4);">S</text>
            </g>
            <g transform="matrix(3.246842,0,0,3.246842,-3745.449918,-2591.295134)">
                <g transform="matrix(50,0,0,50,1732.618679,1203.073432)">
                </g>
                <text x="1544.679px" y="1203.073px" style="font-family:'Arial-BoldMT', 'Arial', sans-serif;font-weight:700;font-size:50px;fill:rgb(211,100,4);">GUIT<tspan x="1660.402px 1696.51px " y="1203.073px 1203.073px ">AR</tspan></text>
            </g>
        </g>
        <g transform="matrix(0.921235,0.246844,-0.246844,0.921235,113.429751,-29.121725)">
            <path d="M1075.809,1683.573C1075.809,1683.573 1023.169,1690.153 1027.555,1781.542C1042.271,1853.424 1035.117,1845.448 1048.027,1874.394C1061.994,1905.71 1083.214,1928.204 1069.96,1969.439C1067.036,1995.028 1066.927,2028.208 1041.446,2067.408C1028.286,2098.846 983.726,2203.104 997.543,2254.297C1014.096,2315.629 1020.47,2361.934 1124.347,2374.568C1228.224,2387.201 1201.088,2382.054 1240.157,2382.99C1279.227,2383.926 1372.927,2379.325 1412.582,2362.402C1444.552,2348.759 1473.695,2317.715 1478.09,2281.453C1479.962,2266.012 1487.449,2217.816 1475.751,2173.365C1464.053,2128.913 1408.371,2021.475 1408.371,2002.576C1408.371,1981.152 1407.435,1958.592 1440.189,1887.937C1447.676,1814.475 1445.804,1830.384 1433.638,1793.418C1418.197,1779.381 1417.261,1773.298 1395.737,1784.528C1386.847,1815.878 1371.874,1862.67 1357.368,1865.477C1342.863,1868.285 1304.026,1881.854 1280.163,1855.183L1280.163,1158.927C1280.163,1158.927 1274.08,1126.173 1307.77,1108.392C1305.898,1069.556 1286.713,994.689 1287.649,982.524C1308.237,970.826 1319.467,979.716 1320.403,956.788C1321.339,933.86 1325.55,923.566 1307.77,905.318C1294.668,897.363 1270.804,888.005 1251.62,916.08C1240.39,950.705 1184.24,1141.614 1184.24,1141.614C1184.24,1141.614 1182.369,1152.376 1200.617,1157.991C1206.7,1172.029 1206.7,1170.625 1206.7,1170.625L1206.7,1771.427C1206.7,1771.427 1160.377,1813.539 1136.981,1794.822C1113.585,1776.106 1101.887,1753.937 1101.887,1753.937L1093.465,1691.413C1093.465,1691.413 1075.466,1684.154 1075.809,1683.573Z" style="fill:rgb(211,100,4);stroke:black;stroke-width:4.37px;"/>
        </g>
    </g>
</svg>
